{"glyphs":{"0":{"ha":1096,"x_min":49,"x_max":1047,"o":"m 1047 1021 l 1047 0 l 49 0 l 49 1021 l 1047 1021 m 90 979 l 90 42 l 1006 42 l 1006 979 l 90 979 m 692 788 l 692 233 l 403 233 l 403 788 l 692 788 m 444 746 l 444 275 l 650 275 l 650 746 l 444 746 z "},"1":{"ha":494,"x_min":47,"x_max":446,"o":"m 444 919 l 444 0 l 49 0 l 49 919 q 78 991 49 961 q 150 1021 108 1021 l 343 1021 q 415 991 386 1021 q 444 919 444 961 m 90 919 l 90 42 l 403 42 l 403 919 q 385 962 403 944 q 343 979 368 979 l 150 979 q 108 962 125 979 q 90 919 90 944 z "},"2":{"ha":1094,"x_min":46,"x_max":1046,"o":"m 1046 275 l 1046 0 l 47 0 l 47 563 l 649 563 l 649 746 l 47 746 l 47 919 q 77 991 47 961 q 149 1021 107 1021 l 944 1021 q 1016 991 986 1021 q 1046 919 1046 961 l 1046 343 l 443 343 l 443 275 l 1046 275 m 89 521 l 89 42 l 1004 42 l 1004 233 l 401 233 l 401 385 l 1004 385 l 1004 919 q 986 962 1004 944 q 944 979 968 979 l 149 979 q 106 962 124 979 q 89 919 89 944 l 89 788 l 690 788 l 690 521 l 89 521 z "},"3":{"ha":1092,"x_min":47,"x_max":1046,"o":"m 1046 101 q 1038 62 1046 81 q 1016 30 1029 43 q 983 8 1003 17 q 944 0 964 0 l 47 0 l 47 275 l 649 275 l 649 343 l 47 343 l 47 563 l 649 563 l 649 746 l 47 746 l 47 919 q 77 991 47 961 q 149 1021 107 1021 l 944 1021 q 1016 991 986 1021 q 1046 919 1046 961 l 1046 647 q 1016 544 1046 592 q 936 469 986 496 q 1016 397 986 444 q 1046 293 1046 349 l 1046 101 m 89 233 l 89 42 l 944 42 q 986 59 968 42 q 1004 101 1004 76 l 1004 293 q 958 403 1004 357 q 847 449 913 449 l 847 490 q 958 536 913 490 q 1004 647 1004 582 l 1004 919 q 986 962 1004 944 q 944 979 968 979 l 149 979 q 125 974 136 979 q 106 962 114 969 q 94 943 99 954 q 89 919 89 932 l 89 788 l 690 788 l 690 521 l 89 521 l 89 385 l 690 385 l 690 233 l 89 233 z "},"4":{"ha":1089,"x_min":40,"x_max":1040,"o":"m 1040 919 l 1040 0 l 479 0 l 479 275 l 643 275 l 643 343 l 42 343 l 42 919 q 72 991 42 961 q 143 1021 101 1021 l 336 1021 q 408 991 379 1021 q 438 919 438 961 l 438 563 l 643 563 l 643 919 q 673 991 643 961 q 746 1021 703 1021 l 939 1021 q 1010 991 981 1021 q 1040 919 1040 961 m 521 233 l 521 42 l 999 42 l 999 919 q 994 943 999 932 q 981 962 989 954 q 961 974 972 969 q 939 979 950 979 l 746 979 q 703 962 721 979 q 685 919 685 944 l 685 521 l 396 521 l 396 919 q 378 962 396 944 q 336 979 361 979 l 143 979 q 101 962 118 979 q 83 919 83 944 l 83 385 l 685 385 l 685 233 l 521 233 z "},"5":{"ha":1094,"x_min":47,"x_max":1047,"o":"m 1047 563 l 1047 0 l 49 0 l 49 275 l 650 275 l 650 343 l 49 343 l 49 919 q 78 991 49 961 q 150 1021 108 1021 l 946 1021 q 996 1007 972 1021 q 1033 970 1019 993 q 1047 919 1047 947 l 1047 746 l 444 746 l 444 563 l 1047 563 m 90 233 l 90 42 l 1006 42 l 1006 521 l 403 521 l 403 788 l 1006 788 l 1006 919 q 1001 943 1006 932 q 988 962 996 954 q 968 974 979 969 q 946 979 957 979 l 150 979 q 108 962 125 979 q 90 919 90 944 l 90 385 l 692 385 l 692 233 l 90 233 z "},"6":{"ha":1094,"x_min":47,"x_max":1047,"o":"m 1047 563 l 1047 0 l 49 0 l 49 919 q 78 991 49 961 q 150 1021 108 1021 l 946 1021 q 1017 991 988 1021 q 1047 919 1047 961 l 1047 746 l 444 746 l 444 563 l 1047 563 m 90 919 l 90 42 l 1006 42 l 1006 521 l 404 521 l 404 788 l 1006 788 l 1006 919 q 988 962 1006 944 q 946 979 971 979 l 150 979 q 108 962 125 979 q 90 919 90 944 m 692 385 l 692 233 l 403 233 l 403 385 l 692 385 m 444 343 l 444 275 l 650 275 l 650 343 l 444 343 z "},"7":{"ha":1085,"x_min":38,"x_max":1036,"o":"m 1036 919 l 1036 0 l 639 0 l 639 746 l 38 746 l 38 919 q 67 991 38 961 q 139 1021 97 1021 l 935 1021 q 1006 991 976 1021 q 1036 919 1036 961 m 681 788 l 681 42 l 994 42 l 994 919 q 977 962 994 944 q 935 979 960 979 l 139 979 q 97 962 114 979 q 79 919 79 944 l 79 788 l 681 788 z "},"8":{"ha":1093,"x_min":47,"x_max":1046,"o":"m 1046 293 l 1046 0 l 47 0 l 47 293 q 77 397 47 349 q 157 469 107 444 q 99 514 124 486 q 60 576 74 542 q 47 647 47 610 l 47 919 q 77 991 47 961 q 149 1021 107 1021 l 944 1021 q 1016 991 986 1021 q 1046 919 1046 961 l 1046 647 q 1016 544 1046 592 q 936 469 986 496 q 1016 397 986 444 q 1046 293 1046 349 m 89 293 l 89 42 l 1004 42 l 1004 293 q 958 403 1004 357 q 847 449 913 449 l 847 490 q 908 503 879 490 q 958 536 938 515 q 992 586 979 557 q 1004 647 1004 615 l 1004 919 q 987 962 1004 944 q 944 979 969 979 l 149 979 q 119 971 132 979 q 97 949 106 963 q 89 919 89 936 l 89 647 q 135 536 89 582 q 246 490 181 490 l 246 449 q 135 403 181 449 q 89 293 89 357 m 690 385 l 690 233 l 401 233 l 401 385 l 690 385 m 443 343 l 443 275 l 649 275 l 649 343 l 443 343 m 690 788 l 690 521 l 401 521 l 401 788 l 690 788 m 443 746 l 443 563 l 649 563 l 649 746 l 443 746 z "},"9":{"ha":1096,"x_min":49,"x_max":1047,"o":"m 1047 919 l 1047 0 l 49 0 l 49 275 l 650 275 l 650 343 l 49 343 l 49 919 q 53 951 49 936 q 68 979 58 967 q 90 1001 78 992 q 118 1016 103 1011 q 150 1021 133 1021 l 946 1021 q 1017 991 988 1021 q 1047 919 1047 961 m 90 233 l 90 42 l 1006 42 l 1006 919 q 988 962 1006 944 q 946 979 969 979 l 150 979 q 108 962 125 979 q 90 919 90 944 l 90 385 l 692 385 l 692 233 l 90 233 m 692 788 l 692 521 l 403 521 l 403 788 l 692 788 m 444 746 l 444 563 l 650 563 l 650 746 l 444 746 z "},"\u0000":{"ha":0,"x_min":0,"x_max":0,"o":""},"\n":{"ha":0,"x_min":0,"x_max":0,"o":""},"\r":{"ha":0,"x_min":0,"x_max":0,"o":""}," ":{"ha":575,"x_min":0,"x_max":0,"o":""},"!":{"ha":494,"x_min":49,"x_max":446,"o":"m 444 218 l 444 0 l 49 0 l 49 218 l 444 218 m 90 176 l 90 42 l 403 42 l 403 176 l 90 176 m 444 919 l 444 239 l 49 239 l 49 919 q 63 970 49 947 q 99 1007 76 993 q 150 1021 122 1021 l 343 1021 q 415 991 386 1021 q 444 919 444 961 m 90 919 l 90 281 l 403 281 l 403 919 q 385 962 403 944 q 343 979 368 979 l 150 979 q 120 971 133 979 q 99 949 107 963 q 90 919 90 936 z "},"\"":{"ha":1078,"x_min":33,"x_max":1039,"o":"m 1038 919 l 1038 604 l 642 604 l 642 801 l 536 801 l 536 604 l 140 604 l 140 801 l 33 801 l 33 1021 l 435 1021 q 501 997 472 1021 q 535 936 529 972 l 535 1021 l 936 1021 q 1008 991 978 1021 q 1038 919 1038 961 m 683 843 l 683 646 l 996 646 l 996 919 q 978 962 996 944 q 936 979 961 979 l 576 979 l 576 843 l 683 843 m 182 843 l 182 646 l 494 646 l 494 919 q 477 962 494 944 q 435 979 460 979 l 75 979 l 75 843 l 182 843 z "},"$":{"ha":1096,"x_min":49,"x_max":1047,"o":"m 625 0 l 625 -125 l 471 -125 l 471 0 l 49 0 l 49 275 l 471 275 l 471 343 l 49 343 l 49 919 q 63 970 49 947 q 99 1007 76 993 q 150 1021 122 1021 l 471 1021 l 471 1146 l 625 1146 l 625 1021 l 946 1021 q 1017 991 988 1021 q 1047 919 1047 961 l 1047 622 l 650 622 l 650 746 l 625 746 l 625 563 l 1047 563 l 1047 0 l 625 0 m 513 42 l 513 -83 l 583 -83 l 583 42 l 1006 42 l 1006 521 l 583 521 l 583 788 l 692 788 l 692 664 l 1006 664 l 1006 919 q 988 962 1006 944 q 946 979 969 979 l 583 979 l 583 1104 l 513 1104 l 513 979 l 150 979 q 108 962 125 979 q 90 919 90 944 l 90 385 l 513 385 l 513 233 l 90 233 l 90 42 l 513 42 m 692 385 l 692 233 l 583 233 l 583 385 l 692 385 m 625 343 l 625 275 l 650 275 l 650 343 l 625 343 m 513 788 l 513 521 l 403 521 l 403 788 l 513 788 m 444 746 l 444 563 l 471 563 l 471 746 l 444 746 z "},"&":{"ha":1226,"x_min":46,"x_max":1206,"o":"m 1046 343 l 1046 0 l 47 0 l 47 293 q 77 397 47 349 q 157 469 107 444 q 99 514 124 486 q 60 576 74 542 q 47 647 47 610 l 47 919 q 77 991 47 961 q 149 1021 107 1021 l 944 1021 q 1016 991 986 1021 q 1046 919 1046 961 l 1046 701 q 989 563 1046 621 l 1206 563 l 1206 343 l 1046 343 m 89 293 l 89 42 l 1004 42 l 1004 385 l 1164 385 l 1164 521 l 833 521 l 915 561 q 980 619 956 581 q 1004 701 1004 657 l 1004 919 q 986 962 1004 944 q 944 979 968 979 l 149 979 q 106 962 124 979 q 89 919 89 944 l 89 647 q 135 536 89 582 q 246 490 181 490 l 246 449 q 135 403 181 449 q 89 293 89 357 m 690 385 l 690 233 l 403 233 l 403 385 l 690 385 m 444 343 l 444 275 l 649 275 l 649 343 l 444 343 m 690 788 l 690 521 l 403 521 l 403 788 l 690 788 m 444 746 l 444 563 l 649 563 l 649 746 l 444 746 z "},"(":{"ha":592,"x_min":49,"x_max":553,"o":"m 551 219 l 551 0 l 49 0 l 49 919 q 63 970 49 947 q 99 1007 76 993 q 150 1021 122 1021 l 551 1021 l 551 801 l 444 801 l 444 219 l 551 219 m 90 919 l 90 42 l 510 42 l 510 178 l 403 178 l 403 843 l 510 843 l 510 979 l 150 979 q 108 962 125 979 q 90 919 90 944 z "},")":{"ha":592,"x_min":39,"x_max":543,"o":"m 542 919 l 542 0 l 39 0 l 39 219 l 146 219 l 146 801 l 39 801 l 39 1021 l 440 1021 q 512 991 482 1021 q 542 919 542 961 m 81 178 l 81 42 l 500 42 l 500 919 q 483 962 500 944 q 440 979 465 979 l 81 979 l 81 843 l 188 843 l 188 178 l 81 178 z "},",":{"ha":576,"x_min":33,"x_max":538,"o":"m 536 315 l 536 0 l 140 0 l 140 197 l 33 197 l 33 417 l 435 417 q 506 387 476 417 q 536 315 536 357 m 182 239 l 182 42 l 494 42 l 494 315 q 477 357 494 339 q 435 375 460 375 l 75 375 l 75 239 l 182 239 z "},"-":{"ha":944,"x_min":38,"x_max":907,"o":"m 907 422 q 874 344 907 376 q 796 313 842 313 l 147 313 q 69 344 101 313 q 38 422 38 376 l 38 599 q 69 676 38 644 q 147 708 101 708 l 796 708 q 874 676 842 708 q 907 599 907 644 l 907 422 m 796 667 l 147 667 q 99 647 119 667 q 79 599 79 626 l 79 422 q 99 374 79 394 q 147 354 119 354 l 796 354 q 831 363 815 354 q 856 388 846 372 q 865 422 865 404 l 865 599 q 845 647 865 626 q 796 667 825 667 z "},".":{"ha":472,"x_min":38,"x_max":435,"o":"m 433 417 l 433 29 l 38 29 l 38 417 l 433 417 m 79 375 l 79 71 l 392 71 l 392 375 l 79 375 z "},"/":{"ha":707,"x_min":35,"x_max":672,"o":"m 443 104 q 394 31 431 60 q 310 0 357 3 l 135 0 q 63 33 90 -1 q 49 115 35 71 l 263 917 q 313 990 276 961 q 396 1021 350 1019 l 572 1021 q 644 988 617 1022 q 658 906 672 950 l 443 104 m 572 979 l 396 979 q 338 956 364 976 q 303 906 313 936 l 89 104 q 96 58 81 81 q 133 42 111 40 l 310 42 q 369 65 343 44 q 403 115 394 85 l 618 917 q 611 963 626 940 q 572 979 596 981 z "},"?":{"ha":1088,"x_min":47,"x_max":1046,"o":"m 443 218 l 443 0 l 47 0 l 47 218 l 443 218 m 89 176 l 89 42 l 403 42 l 403 176 l 89 176 m 443 343 l 443 239 l 47 239 l 47 563 l 649 563 l 649 746 l 47 746 l 47 919 q 77 991 47 961 q 149 1021 107 1021 l 944 1021 q 1016 991 986 1021 q 1046 919 1046 961 l 1046 343 l 443 343 m 89 521 l 89 281 l 403 281 l 403 385 l 1004 385 l 1004 919 q 987 962 1004 944 q 944 979 969 979 l 149 979 q 106 962 124 979 q 89 919 89 944 l 89 788 l 690 788 l 690 521 l 89 521 z "},"A":{"ha":1099,"x_min":4,"x_max":1051,"o":"m 1050 919 l 1050 0 l 504 0 l 547 275 l 654 275 l 654 343 l 497 343 l 443 0 l 6 0 l 151 914 q 194 989 160 958 q 276 1021 229 1019 l 949 1021 q 1020 991 990 1021 q 1050 919 1050 961 m 583 233 l 553 42 l 1008 42 l 1008 919 q 991 962 1008 944 q 949 979 974 979 l 276 979 q 222 958 244 978 q 192 907 199 938 l 54 42 l 407 42 l 463 385 l 696 385 l 696 233 l 583 233 m 696 788 l 696 521 l 483 521 l 526 788 l 696 788 m 561 746 l 532 563 l 654 563 l 654 746 l 561 746 z "},"B":{"ha":1086,"x_min":46,"x_max":1046,"o":"m 1046 101 q 1016 30 1046 60 q 944 0 986 0 l 47 0 l 47 919 q 77 991 47 961 q 149 1021 107 1021 l 944 1021 q 1016 991 986 1021 q 1046 919 1046 961 l 1046 647 q 1016 543 1046 592 q 936 469 986 494 q 1016 397 986 444 q 1046 293 1046 349 l 1046 101 m 89 919 l 89 42 l 944 42 q 986 59 968 42 q 1004 101 1004 76 l 1004 293 q 992 353 1004 325 q 958 403 979 382 q 908 436 938 424 q 847 449 879 449 l 847 490 q 958 536 913 490 q 1004 647 1004 582 l 1004 919 q 986 962 1004 944 q 944 979 968 979 l 149 979 q 106 962 124 979 q 89 919 89 944 m 690 385 l 690 233 l 401 233 l 401 385 l 690 385 m 443 343 l 443 275 l 649 275 l 649 343 l 443 343 m 690 788 l 690 521 l 401 521 l 401 788 l 690 788 m 443 746 l 443 563 l 649 563 l 649 746 l 443 746 z "},"C":{"ha":1078,"x_min":46,"x_max":1046,"o":"m 1046 275 l 1046 0 l 47 0 l 47 919 q 77 991 47 961 q 149 1021 107 1021 l 944 1021 q 1016 991 986 1021 q 1046 919 1046 961 l 1046 622 l 649 622 l 649 746 l 443 746 l 443 275 l 1046 275 m 89 919 l 89 42 l 1004 42 l 1004 233 l 401 233 l 401 788 l 690 788 l 690 664 l 1004 664 l 1004 919 q 986 962 1004 944 q 944 979 968 979 l 149 979 q 106 962 124 979 q 89 919 89 944 z "},"D":{"ha":1086,"x_min":46,"x_max":1046,"o":"m 1046 199 q 1019 99 1046 144 q 947 26 993 53 q 847 0 901 0 l 47 0 l 47 919 q 77 991 47 961 q 149 1021 107 1021 l 847 1021 q 947 994 901 1021 q 1019 922 993 968 q 1046 822 1046 876 l 1046 199 m 89 919 l 89 42 l 847 42 q 958 88 913 42 q 1004 199 1004 133 l 1004 822 q 958 933 1004 888 q 847 979 913 979 l 149 979 q 119 971 132 979 q 97 949 106 963 q 89 919 89 936 m 690 788 l 690 233 l 401 233 l 401 788 l 690 788 m 443 746 l 443 275 l 649 275 l 649 746 l 443 746 z "},"E":{"ha":1092,"x_min":46,"x_max":1046,"o":"m 1046 275 l 1046 0 l 47 0 l 47 919 q 77 991 47 961 q 149 1021 107 1021 l 944 1021 q 1016 991 986 1021 q 1046 919 1046 961 l 1046 622 l 649 622 l 649 746 l 443 746 l 443 563 l 1046 563 l 1046 343 l 443 343 l 443 275 l 1046 275 m 89 919 l 89 42 l 1004 42 l 1004 233 l 403 233 l 403 385 l 1004 385 l 1004 521 l 403 521 l 403 788 l 690 788 l 690 664 l 1004 664 l 1004 919 q 987 962 1004 944 q 944 979 969 979 l 149 979 q 106 962 124 979 q 89 919 89 944 z "},"F":{"ha":1078,"x_min":47,"x_max":1046,"o":"m 443 343 l 443 0 l 47 0 l 47 919 q 77 991 47 961 q 149 1021 107 1021 l 944 1021 q 1016 991 986 1021 q 1046 919 1046 961 l 1046 622 l 649 622 l 649 746 l 443 746 l 443 563 l 1046 563 l 1046 253 l 649 253 l 649 343 l 443 343 m 89 919 l 89 42 l 401 42 l 401 385 l 690 385 l 690 294 l 1004 294 l 1004 521 l 401 521 l 401 788 l 690 788 l 690 664 l 1004 664 l 1004 919 q 987 962 1004 944 q 944 979 969 979 l 149 979 q 106 962 124 979 q 89 919 89 944 z "},"G":{"ha":1093,"x_min":47,"x_max":1046,"o":"m 1046 563 l 1046 0 l 47 0 l 47 919 q 77 991 47 961 q 149 1021 107 1021 l 944 1021 q 1016 991 986 1021 q 1046 919 1046 961 l 1046 622 l 649 622 l 649 746 l 443 746 l 443 275 l 649 275 l 649 343 l 535 343 l 535 563 l 1046 563 m 89 919 l 89 42 l 1004 42 l 1004 521 l 576 521 l 576 385 l 690 385 l 690 233 l 401 233 l 401 788 l 690 788 l 690 664 l 1004 664 l 1004 919 q 986 962 1004 944 q 944 979 968 979 l 149 979 q 106 962 124 979 q 89 919 89 944 z "},"H":{"ha":1093,"x_min":46,"x_max":1046,"o":"m 1046 919 l 1046 0 l 503 0 l 503 275 l 649 275 l 649 343 l 443 343 l 443 0 l 47 0 l 47 919 q 56 959 47 940 q 77 991 64 978 q 109 1013 90 1004 q 149 1021 128 1021 l 342 1021 q 393 1007 369 1021 q 430 970 417 993 q 443 919 443 947 l 443 563 l 649 563 l 649 919 q 678 991 649 961 q 751 1021 708 1021 l 944 1021 q 1016 991 986 1021 q 1046 919 1046 961 m 544 233 l 544 42 l 1004 42 l 1004 919 q 986 962 1004 944 q 944 979 968 979 l 751 979 q 708 962 726 979 q 690 919 690 944 l 690 521 l 401 521 l 401 919 q 384 962 401 944 q 342 979 367 979 l 149 979 q 106 962 124 979 q 89 919 89 944 l 89 42 l 401 42 l 401 385 l 690 385 l 690 233 l 544 233 z "},"I":{"ha":492,"x_min":47,"x_max":444,"o":"m 443 919 l 443 0 l 47 0 l 47 919 q 77 991 47 961 q 149 1021 107 1021 l 342 1021 q 414 991 385 1021 q 443 919 443 961 m 89 919 l 89 42 l 401 42 l 401 919 q 384 962 401 944 q 342 979 367 979 l 149 979 q 106 962 124 979 q 89 919 89 944 z "},"J":{"ha":1061,"x_min":15,"x_max":1014,"o":"m 1014 919 l 1014 0 l 15 0 l 15 461 q 45 533 15 503 q 117 563 75 563 l 310 563 q 382 533 353 563 q 411 461 411 503 l 411 275 l 617 275 l 617 919 q 631 970 617 947 q 668 1007 644 993 q 719 1021 692 1021 l 913 1021 q 984 991 954 1021 q 1014 919 1014 961 m 57 461 l 57 42 l 972 42 l 972 919 q 967 943 972 932 q 954 962 963 954 q 935 974 946 969 q 913 979 924 979 l 719 979 q 676 962 694 979 q 658 919 658 944 l 658 233 l 369 233 l 369 461 q 352 503 369 486 q 310 521 335 521 l 117 521 q 74 503 92 521 q 57 461 57 486 z "},"K":{"ha":1088,"x_min":47,"x_max":1046,"o":"m 1046 293 l 1046 0 l 503 0 l 503 275 l 649 275 l 649 343 l 443 343 l 443 0 l 47 0 l 47 919 q 61 970 47 947 q 98 1007 75 993 q 149 1021 121 1021 l 342 1021 q 414 991 385 1021 q 443 919 443 961 l 443 563 l 649 563 l 649 919 q 678 991 649 961 q 750 1021 708 1021 l 944 1021 q 1016 991 986 1021 q 1046 919 1046 961 l 1046 647 q 1016 543 1046 592 q 936 469 986 494 q 1016 397 986 444 q 1046 293 1046 349 m 544 233 l 544 42 l 1004 42 l 1004 293 q 958 403 1004 357 q 847 449 913 449 l 847 490 q 958 536 913 490 q 1004 647 1004 582 l 1004 919 q 986 962 1004 944 q 944 979 968 979 l 750 979 q 708 962 726 979 q 690 919 690 944 l 690 521 l 401 521 l 401 919 q 384 962 401 944 q 342 979 367 979 l 149 979 q 106 962 124 979 q 89 919 89 944 l 89 42 l 401 42 l 401 385 l 690 385 l 690 233 l 544 233 z "},"L":{"ha":1061,"x_min":47,"x_max":1046,"o":"m 1046 0 l 422 0 l 47 0 l 47 919 q 77 991 47 961 q 149 1021 107 1021 l 342 1021 q 414 991 385 1021 q 443 919 443 961 l 443 275 l 649 275 l 649 461 q 663 513 649 489 q 700 549 676 536 q 751 563 724 563 l 944 563 q 1016 533 986 563 q 1046 461 1046 503 l 1046 0 m 89 919 l 89 42 l 1004 42 l 1004 461 q 986 503 1004 486 q 944 521 968 521 l 751 521 q 721 513 735 521 q 699 492 707 506 q 690 461 690 478 l 690 233 l 401 233 l 401 919 q 384 962 401 944 q 342 979 367 979 l 149 979 q 106 962 124 979 q 89 919 89 944 z "},"M":{"ha":1407,"x_min":46,"x_max":1360,"o":"m 1358 919 l 1358 0 l 963 0 l 963 746 l 901 746 l 901 0 l 504 0 l 504 746 l 443 746 l 443 0 l 47 0 l 47 919 q 77 991 47 961 q 149 1021 107 1021 l 1257 1021 q 1328 991 1299 1021 q 1358 919 1358 961 m 1004 788 l 1004 42 l 1317 42 l 1317 919 q 1299 962 1317 944 q 1257 979 1282 979 l 149 979 q 106 962 124 979 q 89 919 89 944 l 89 42 l 401 42 l 401 788 l 546 788 l 546 42 l 860 42 l 860 788 l 1004 788 z "},"N":{"ha":1093,"x_min":47,"x_max":1046,"o":"m 1046 919 l 1046 0 l 503 0 l 503 275 l 649 275 l 649 611 l 443 731 l 443 0 l 47 0 l 47 919 q 56 959 47 940 q 77 991 64 978 q 109 1013 90 1004 q 149 1021 128 1021 l 428 1021 l 649 893 l 649 919 q 663 970 649 947 q 700 1007 676 993 q 751 1021 724 1021 l 944 1021 q 1016 991 986 1021 q 1046 919 1046 961 m 544 233 l 544 42 l 1004 42 l 1004 919 q 987 962 1004 944 q 944 979 969 979 l 751 979 q 708 962 726 979 q 690 919 690 944 l 690 821 l 418 979 l 149 979 q 119 971 133 979 q 97 949 106 963 q 89 919 89 936 l 89 42 l 403 42 l 403 803 l 690 636 l 690 233 l 544 233 z "},"O":{"ha":1093,"x_min":46,"x_max":1046,"o":"m 1046 919 l 1046 0 l 47 0 l 47 919 q 77 991 47 961 q 149 1021 107 1021 l 944 1021 q 1016 991 986 1021 q 1046 919 1046 961 m 89 919 l 89 42 l 1004 42 l 1004 919 q 986 962 1004 944 q 944 979 968 979 l 149 979 q 106 962 124 979 q 89 919 89 944 m 690 788 l 690 233 l 401 233 l 401 788 l 690 788 m 443 746 l 443 275 l 649 275 l 649 746 l 443 746 z "},"P":{"ha":1072,"x_min":47,"x_max":1046,"o":"m 444 343 l 444 0 l 47 0 l 47 919 q 77 991 47 961 q 149 1021 107 1021 l 944 1021 q 1016 991 986 1021 q 1046 919 1046 961 l 1046 343 l 444 343 m 89 919 l 89 42 l 403 42 l 403 385 l 1004 385 l 1004 919 q 987 962 1004 944 q 944 979 969 979 l 149 979 q 119 971 132 979 q 97 949 106 963 q 89 919 89 936 m 690 788 l 690 521 l 401 521 l 401 788 l 690 788 m 443 746 l 443 563 l 649 563 l 649 746 l 443 746 z "},"Q":{"ha":1093,"x_min":47,"x_max":1046,"o":"m 690 0 l 690 -176 l 401 -176 l 401 0 l 47 0 l 47 919 q 77 991 47 961 q 149 1021 107 1021 l 944 1021 q 1016 991 986 1021 q 1046 919 1046 961 l 1046 0 l 690 0 m 443 42 l 443 -135 l 649 -135 l 649 42 l 1004 42 l 1004 919 q 986 962 1004 944 q 944 979 968 979 l 149 979 q 106 962 124 979 q 89 919 89 944 l 89 42 l 443 42 m 690 788 l 690 233 l 401 233 l 401 788 l 690 788 m 443 746 l 443 275 l 649 275 l 649 746 l 443 746 z "},"R":{"ha":1088,"x_min":47,"x_max":1046,"o":"m 1046 293 l 1046 0 l 503 0 l 503 275 l 649 275 l 649 343 l 443 343 l 443 0 l 47 0 l 47 919 q 77 991 47 961 q 149 1021 107 1021 l 944 1021 q 1016 991 986 1021 q 1046 919 1046 961 l 1046 647 q 1016 543 1046 592 q 936 469 986 494 q 1016 397 986 444 q 1046 293 1046 349 m 544 233 l 544 42 l 1004 42 l 1004 293 q 958 403 1004 357 q 847 449 913 449 l 847 490 q 958 536 913 490 q 1004 647 1004 582 l 1004 919 q 986 962 1004 944 q 944 979 968 979 l 149 979 q 119 971 132 979 q 97 949 106 963 q 89 919 89 936 l 89 42 l 401 42 l 401 385 l 690 385 l 690 233 l 544 233 m 690 788 l 690 521 l 401 521 l 401 788 l 690 788 m 443 746 l 443 563 l 649 563 l 649 746 l 443 746 z "},"S":{"ha":1093,"x_min":47,"x_max":1046,"o":"m 1046 563 l 1046 0 l 47 0 l 47 275 l 649 275 l 649 343 l 47 343 l 47 919 q 77 991 47 961 q 149 1021 107 1021 l 944 1021 q 1016 991 986 1021 q 1046 919 1046 961 l 1046 622 l 649 622 l 649 746 l 443 746 l 443 563 l 1046 563 m 89 233 l 89 42 l 1004 42 l 1004 521 l 401 521 l 401 788 l 690 788 l 690 664 l 1004 664 l 1004 919 q 986 962 1004 944 q 944 979 968 979 l 149 979 q 119 971 132 979 q 97 949 106 963 q 89 919 89 936 l 89 385 l 690 385 l 690 233 l 89 233 z "},"T":{"ha":988,"x_min":-7,"x_max":993,"o":"m 692 746 l 692 0 l 296 0 l 296 746 l -6 746 l -6 919 q 24 991 -6 961 q 96 1021 54 1021 l 892 1021 q 963 991 933 1021 q 993 919 993 961 l 993 746 l 692 746 m 338 788 l 338 42 l 650 42 l 650 788 l 951 788 l 951 919 q 934 962 951 944 q 892 979 917 979 l 96 979 q 66 971 79 979 q 44 949 53 963 q 36 919 36 936 l 36 788 l 338 788 z "},"U":{"ha":1093,"x_min":47,"x_max":1046,"o":"m 1046 919 l 1046 0 l 47 0 l 47 919 q 77 991 47 961 q 149 1021 107 1021 l 342 1021 q 414 991 385 1021 q 443 919 443 961 l 443 275 l 649 275 l 649 919 q 678 991 649 961 q 751 1021 708 1021 l 944 1021 q 1016 991 986 1021 q 1046 919 1046 961 m 89 919 l 89 42 l 1004 42 l 1004 919 q 987 962 1004 944 q 944 979 969 979 l 751 979 q 708 962 726 979 q 690 919 690 944 l 690 233 l 401 233 l 401 919 q 384 962 401 944 q 342 979 367 979 l 149 979 q 106 962 124 979 q 89 919 89 944 z "},"V":{"ha":1085,"x_min":46,"x_max":1081,"o":"m 1071 907 l 926 0 l 47 0 l 47 919 q 77 991 47 961 q 149 1021 107 1021 l 342 1021 q 414 991 385 1021 q 443 919 443 961 l 443 275 l 533 275 l 635 914 q 678 989 643 958 q 760 1021 714 1019 l 975 1021 q 1050 988 1021 1022 q 1071 907 1079 953 m 89 919 l 89 42 l 890 42 l 1029 914 q 1018 961 1035 940 q 975 979 1001 981 l 760 979 q 706 958 729 978 q 676 907 682 938 l 569 233 l 401 233 l 401 919 q 384 962 401 944 q 342 979 367 979 l 149 979 q 106 962 124 979 q 89 919 89 944 z "},"W":{"ha":1407,"x_min":47,"x_max":1360,"o":"m 1358 919 l 1358 0 l 47 0 l 47 919 q 77 991 47 961 q 149 1021 107 1021 l 444 1021 l 444 275 l 504 275 l 504 919 q 535 991 506 961 q 607 1021 564 1021 l 800 1021 q 872 991 842 1021 q 901 919 901 961 l 901 275 l 963 275 l 963 919 q 992 991 963 961 q 1064 1021 1022 1021 l 1257 1021 q 1328 991 1299 1021 q 1358 919 1358 961 m 89 919 l 89 42 l 1317 42 l 1317 919 q 1312 943 1317 932 q 1299 962 1307 954 q 1281 974 1292 969 q 1257 979 1269 979 l 1064 979 q 1022 962 1039 979 q 1004 919 1004 944 l 1004 233 l 860 233 l 860 919 q 855 943 860 932 q 842 962 850 954 q 822 974 833 969 q 800 979 811 979 l 607 979 q 564 962 582 979 q 546 919 546 944 l 546 233 l 401 233 l 401 979 l 149 979 q 118 971 132 979 q 97 949 104 963 q 89 919 89 936 z "},"X":{"ha":1082,"x_min":42,"x_max":1040,"o":"m 1040 293 l 1040 0 l 497 0 l 497 275 l 643 275 l 643 343 l 438 343 l 438 0 l 42 0 l 42 293 q 72 397 42 349 q 151 469 101 444 q 106 501 126 482 q 72 543 86 521 q 49 592 57 565 q 42 647 42 619 l 42 919 q 72 991 42 961 q 143 1021 101 1021 l 336 1021 q 408 991 379 1021 q 438 919 438 961 l 438 563 l 643 563 l 643 919 q 673 991 643 961 q 746 1021 703 1021 l 939 1021 q 1010 991 981 1021 q 1040 919 1040 961 l 1040 647 q 1010 543 1040 592 q 931 469 981 494 q 1010 397 981 444 q 1040 293 1040 349 m 539 233 l 539 42 l 999 42 l 999 293 q 953 403 999 357 q 842 449 907 449 l 842 490 q 953 536 907 490 q 999 647 999 582 l 999 919 q 981 962 999 944 q 939 979 964 979 l 746 979 q 703 962 721 979 q 685 919 685 944 l 685 521 l 397 521 l 397 919 q 378 962 396 944 q 336 979 361 979 l 143 979 q 119 974 131 979 q 101 962 108 969 q 88 943 93 954 q 83 919 83 932 l 83 647 q 129 536 83 582 q 240 490 175 490 l 240 449 q 129 403 175 449 q 83 293 83 357 l 83 42 l 397 42 l 397 385 l 685 385 l 685 233 l 539 233 z "},"Y":{"ha":1051,"x_min":26,"x_max":1025,"o":"m 724 343 l 724 0 l 328 0 l 328 343 l 26 343 l 26 919 q 56 991 26 961 q 128 1021 86 1021 l 321 1021 q 393 991 364 1021 q 422 919 422 961 l 422 563 l 628 563 l 628 919 q 658 991 628 961 q 731 1021 688 1021 l 924 1021 q 995 991 965 1021 q 1025 919 1025 961 l 1025 343 l 724 343 m 369 385 l 369 42 l 682 42 l 682 385 l 983 385 l 983 919 q 965 962 983 944 q 924 979 947 979 l 729 979 q 688 962 706 979 q 669 919 669 944 l 669 521 l 381 521 l 381 919 q 363 962 381 944 q 321 979 346 979 l 128 979 q 85 962 103 979 q 68 919 68 944 l 68 385 l 369 385 z "},"Z":{"ha":1092,"x_min":46,"x_max":1046,"o":"m 1046 275 l 1046 0 l 47 0 l 47 563 l 649 563 l 649 746 l 443 746 l 443 622 l 47 622 l 47 919 q 77 991 47 961 q 149 1021 107 1021 l 944 1021 q 1016 991 986 1021 q 1046 919 1046 961 l 1046 343 l 443 343 l 443 275 l 1046 275 m 89 521 l 89 42 l 1004 42 l 1004 233 l 403 233 l 403 385 l 1004 385 l 1004 919 q 987 962 1004 944 q 944 979 969 979 l 149 979 q 106 962 124 979 q 89 919 89 944 l 89 664 l 403 664 l 403 788 l 690 788 l 690 521 l 89 521 z "},"a":{"ha":1099,"x_min":4,"x_max":1051,"o":"m 1050 919 l 1050 0 l 504 0 l 547 275 l 654 275 l 654 343 l 497 343 l 443 0 l 6 0 l 151 914 q 194 989 160 958 q 276 1021 229 1019 l 949 1021 q 1020 991 990 1021 q 1050 919 1050 961 m 583 233 l 553 42 l 1008 42 l 1008 919 q 991 962 1008 944 q 949 979 974 979 l 276 979 q 222 958 244 978 q 192 907 199 938 l 54 42 l 407 42 l 463 385 l 696 385 l 696 233 l 583 233 m 696 788 l 696 521 l 483 521 l 526 788 l 696 788 m 561 746 l 532 563 l 654 563 l 654 746 l 561 746 z "},"b":{"ha":1086,"x_min":46,"x_max":1046,"o":"m 1046 101 q 1016 30 1046 60 q 944 0 986 0 l 47 0 l 47 919 q 77 991 47 961 q 149 1021 107 1021 l 944 1021 q 1016 991 986 1021 q 1046 919 1046 961 l 1046 647 q 1016 543 1046 592 q 936 469 986 494 q 1016 397 986 444 q 1046 293 1046 349 l 1046 101 m 89 919 l 89 42 l 944 42 q 986 59 968 42 q 1004 101 1004 76 l 1004 293 q 992 353 1004 325 q 958 403 979 382 q 908 436 938 424 q 847 449 879 449 l 847 490 q 958 536 913 490 q 1004 647 1004 582 l 1004 919 q 986 962 1004 944 q 944 979 968 979 l 149 979 q 106 962 124 979 q 89 919 89 944 m 690 385 l 690 233 l 401 233 l 401 385 l 690 385 m 443 343 l 443 275 l 649 275 l 649 343 l 443 343 m 690 788 l 690 521 l 401 521 l 401 788 l 690 788 m 443 746 l 443 563 l 649 563 l 649 746 l 443 746 z "},"c":{"ha":1078,"x_min":46,"x_max":1046,"o":"m 1046 275 l 1046 0 l 47 0 l 47 919 q 77 991 47 961 q 149 1021 107 1021 l 944 1021 q 1016 991 986 1021 q 1046 919 1046 961 l 1046 622 l 649 622 l 649 746 l 443 746 l 443 275 l 1046 275 m 89 919 l 89 42 l 1004 42 l 1004 233 l 401 233 l 401 788 l 690 788 l 690 664 l 1004 664 l 1004 919 q 986 962 1004 944 q 944 979 968 979 l 149 979 q 106 962 124 979 q 89 919 89 944 z "},"d":{"ha":1086,"x_min":46,"x_max":1046,"o":"m 1046 199 q 1019 99 1046 144 q 947 26 993 53 q 847 0 901 0 l 47 0 l 47 919 q 77 991 47 961 q 149 1021 107 1021 l 847 1021 q 947 994 901 1021 q 1019 922 993 968 q 1046 822 1046 876 l 1046 199 m 89 919 l 89 42 l 847 42 q 958 88 913 42 q 1004 199 1004 133 l 1004 822 q 958 933 1004 888 q 847 979 913 979 l 149 979 q 119 971 132 979 q 97 949 106 963 q 89 919 89 936 m 690 788 l 690 233 l 401 233 l 401 788 l 690 788 m 443 746 l 443 275 l 649 275 l 649 746 l 443 746 z "},"e":{"ha":1092,"x_min":46,"x_max":1046,"o":"m 1046 275 l 1046 0 l 47 0 l 47 919 q 77 991 47 961 q 149 1021 107 1021 l 944 1021 q 1016 991 986 1021 q 1046 919 1046 961 l 1046 622 l 649 622 l 649 746 l 443 746 l 443 563 l 1046 563 l 1046 343 l 443 343 l 443 275 l 1046 275 m 89 919 l 89 42 l 1004 42 l 1004 233 l 403 233 l 403 385 l 1004 385 l 1004 521 l 403 521 l 403 788 l 690 788 l 690 664 l 1004 664 l 1004 919 q 987 962 1004 944 q 944 979 969 979 l 149 979 q 106 962 124 979 q 89 919 89 944 z "},"f":{"ha":1078,"x_min":47,"x_max":1046,"o":"m 443 343 l 443 0 l 47 0 l 47 919 q 77 991 47 961 q 149 1021 107 1021 l 944 1021 q 1016 991 986 1021 q 1046 919 1046 961 l 1046 622 l 649 622 l 649 746 l 443 746 l 443 563 l 1046 563 l 1046 253 l 649 253 l 649 343 l 443 343 m 89 919 l 89 42 l 401 42 l 401 385 l 690 385 l 690 294 l 1004 294 l 1004 521 l 401 521 l 401 788 l 690 788 l 690 664 l 1004 664 l 1004 919 q 987 962 1004 944 q 944 979 969 979 l 149 979 q 106 962 124 979 q 89 919 89 944 z "},"g":{"ha":1093,"x_min":47,"x_max":1046,"o":"m 1046 563 l 1046 0 l 47 0 l 47 919 q 77 991 47 961 q 149 1021 107 1021 l 944 1021 q 1016 991 986 1021 q 1046 919 1046 961 l 1046 622 l 649 622 l 649 746 l 443 746 l 443 275 l 649 275 l 649 343 l 535 343 l 535 563 l 1046 563 m 89 919 l 89 42 l 1004 42 l 1004 521 l 576 521 l 576 385 l 690 385 l 690 233 l 401 233 l 401 788 l 690 788 l 690 664 l 1004 664 l 1004 919 q 986 962 1004 944 q 944 979 968 979 l 149 979 q 106 962 124 979 q 89 919 89 944 z "},"h":{"ha":1093,"x_min":46,"x_max":1046,"o":"m 1046 919 l 1046 0 l 503 0 l 503 275 l 649 275 l 649 343 l 443 343 l 443 0 l 47 0 l 47 919 q 56 959 47 940 q 77 991 64 978 q 109 1013 90 1004 q 149 1021 128 1021 l 342 1021 q 393 1007 369 1021 q 430 970 417 993 q 443 919 443 947 l 443 563 l 649 563 l 649 919 q 678 991 649 961 q 751 1021 708 1021 l 944 1021 q 1016 991 986 1021 q 1046 919 1046 961 m 544 233 l 544 42 l 1004 42 l 1004 919 q 986 962 1004 944 q 944 979 968 979 l 751 979 q 708 962 726 979 q 690 919 690 944 l 690 521 l 401 521 l 401 919 q 384 962 401 944 q 342 979 367 979 l 149 979 q 106 962 124 979 q 89 919 89 944 l 89 42 l 401 42 l 401 385 l 690 385 l 690 233 l 544 233 z "},"i":{"ha":492,"x_min":47,"x_max":444,"o":"m 443 919 l 443 0 l 47 0 l 47 919 q 77 991 47 961 q 149 1021 107 1021 l 342 1021 q 414 991 385 1021 q 443 919 443 961 m 89 919 l 89 42 l 401 42 l 401 919 q 384 962 401 944 q 342 979 367 979 l 149 979 q 106 962 124 979 q 89 919 89 944 z "},"j":{"ha":1061,"x_min":15,"x_max":1014,"o":"m 1014 919 l 1014 0 l 15 0 l 15 461 q 45 533 15 503 q 117 563 75 563 l 310 563 q 382 533 353 563 q 411 461 411 503 l 411 275 l 617 275 l 617 919 q 631 970 617 947 q 668 1007 644 993 q 719 1021 692 1021 l 913 1021 q 984 991 954 1021 q 1014 919 1014 961 m 57 461 l 57 42 l 972 42 l 972 919 q 967 943 972 932 q 954 962 963 954 q 935 974 946 969 q 913 979 924 979 l 719 979 q 676 962 694 979 q 658 919 658 944 l 658 233 l 369 233 l 369 461 q 352 503 369 486 q 310 521 335 521 l 117 521 q 74 503 92 521 q 57 461 57 486 z "},"k":{"ha":1088,"x_min":47,"x_max":1046,"o":"m 1046 293 l 1046 0 l 503 0 l 503 275 l 649 275 l 649 343 l 443 343 l 443 0 l 47 0 l 47 919 q 61 970 47 947 q 98 1007 75 993 q 149 1021 121 1021 l 342 1021 q 414 991 385 1021 q 443 919 443 961 l 443 563 l 649 563 l 649 919 q 678 991 649 961 q 750 1021 708 1021 l 944 1021 q 1016 991 986 1021 q 1046 919 1046 961 l 1046 647 q 1016 543 1046 592 q 936 469 986 494 q 1016 397 986 444 q 1046 293 1046 349 m 544 233 l 544 42 l 1004 42 l 1004 293 q 958 403 1004 357 q 847 449 913 449 l 847 490 q 958 536 913 490 q 1004 647 1004 582 l 1004 919 q 986 962 1004 944 q 944 979 968 979 l 750 979 q 708 962 726 979 q 690 919 690 944 l 690 521 l 401 521 l 401 919 q 384 962 401 944 q 342 979 367 979 l 149 979 q 106 962 124 979 q 89 919 89 944 l 89 42 l 401 42 l 401 385 l 690 385 l 690 233 l 544 233 z "},"l":{"ha":1061,"x_min":47,"x_max":1046,"o":"m 1046 0 l 422 0 l 47 0 l 47 919 q 77 991 47 961 q 149 1021 107 1021 l 342 1021 q 414 991 385 1021 q 443 919 443 961 l 443 275 l 649 275 l 649 461 q 663 513 649 489 q 700 549 676 536 q 751 563 724 563 l 944 563 q 1016 533 986 563 q 1046 461 1046 503 l 1046 0 m 89 919 l 89 42 l 1004 42 l 1004 461 q 986 503 1004 486 q 944 521 968 521 l 751 521 q 721 513 735 521 q 699 492 707 506 q 690 461 690 478 l 690 233 l 401 233 l 401 919 q 384 962 401 944 q 342 979 367 979 l 149 979 q 106 962 124 979 q 89 919 89 944 z "},"m":{"ha":1407,"x_min":46,"x_max":1360,"o":"m 1358 919 l 1358 0 l 963 0 l 963 746 l 901 746 l 901 0 l 504 0 l 504 746 l 443 746 l 443 0 l 47 0 l 47 919 q 77 991 47 961 q 149 1021 107 1021 l 1257 1021 q 1328 991 1299 1021 q 1358 919 1358 961 m 1004 788 l 1004 42 l 1317 42 l 1317 919 q 1299 962 1317 944 q 1257 979 1282 979 l 149 979 q 106 962 124 979 q 89 919 89 944 l 89 42 l 401 42 l 401 788 l 546 788 l 546 42 l 860 42 l 860 788 l 1004 788 z "},"n":{"ha":1093,"x_min":47,"x_max":1046,"o":"m 1046 919 l 1046 0 l 503 0 l 503 275 l 649 275 l 649 611 l 443 731 l 443 0 l 47 0 l 47 919 q 56 959 47 940 q 77 991 64 978 q 109 1013 90 1004 q 149 1021 128 1021 l 428 1021 l 649 893 l 649 919 q 663 970 649 947 q 700 1007 676 993 q 751 1021 724 1021 l 944 1021 q 1016 991 986 1021 q 1046 919 1046 961 m 544 233 l 544 42 l 1004 42 l 1004 919 q 987 962 1004 944 q 944 979 969 979 l 751 979 q 708 962 726 979 q 690 919 690 944 l 690 821 l 418 979 l 149 979 q 119 971 133 979 q 97 949 106 963 q 89 919 89 936 l 89 42 l 403 42 l 403 803 l 690 636 l 690 233 l 544 233 z "},"o":{"ha":1093,"x_min":46,"x_max":1046,"o":"m 1046 919 l 1046 0 l 47 0 l 47 919 q 77 991 47 961 q 149 1021 107 1021 l 944 1021 q 1016 991 986 1021 q 1046 919 1046 961 m 89 919 l 89 42 l 1004 42 l 1004 919 q 986 962 1004 944 q 944 979 968 979 l 149 979 q 106 962 124 979 q 89 919 89 944 m 690 788 l 690 233 l 401 233 l 401 788 l 690 788 m 443 746 l 443 275 l 649 275 l 649 746 l 443 746 z "},"p":{"ha":1072,"x_min":47,"x_max":1046,"o":"m 444 343 l 444 0 l 47 0 l 47 919 q 77 991 47 961 q 149 1021 107 1021 l 944 1021 q 1016 991 986 1021 q 1046 919 1046 961 l 1046 343 l 444 343 m 89 919 l 89 42 l 403 42 l 403 385 l 1004 385 l 1004 919 q 987 962 1004 944 q 944 979 969 979 l 149 979 q 119 971 132 979 q 97 949 106 963 q 89 919 89 936 m 690 788 l 690 521 l 401 521 l 401 788 l 690 788 m 443 746 l 443 563 l 649 563 l 649 746 l 443 746 z "},"q":{"ha":1093,"x_min":47,"x_max":1046,"o":"m 690 0 l 690 -176 l 401 -176 l 401 0 l 47 0 l 47 919 q 77 991 47 961 q 149 1021 107 1021 l 944 1021 q 1016 991 986 1021 q 1046 919 1046 961 l 1046 0 l 690 0 m 443 42 l 443 -135 l 649 -135 l 649 42 l 1004 42 l 1004 919 q 986 962 1004 944 q 944 979 968 979 l 149 979 q 106 962 124 979 q 89 919 89 944 l 89 42 l 443 42 m 690 788 l 690 233 l 401 233 l 401 788 l 690 788 m 443 746 l 443 275 l 649 275 l 649 746 l 443 746 z "},"r":{"ha":1088,"x_min":47,"x_max":1046,"o":"m 1046 293 l 1046 0 l 503 0 l 503 275 l 649 275 l 649 343 l 443 343 l 443 0 l 47 0 l 47 919 q 77 991 47 961 q 149 1021 107 1021 l 944 1021 q 1016 991 986 1021 q 1046 919 1046 961 l 1046 647 q 1016 543 1046 592 q 936 469 986 494 q 1016 397 986 444 q 1046 293 1046 349 m 544 233 l 544 42 l 1004 42 l 1004 293 q 958 403 1004 357 q 847 449 913 449 l 847 490 q 958 536 913 490 q 1004 647 1004 582 l 1004 919 q 986 962 1004 944 q 944 979 968 979 l 149 979 q 119 971 132 979 q 97 949 106 963 q 89 919 89 936 l 89 42 l 401 42 l 401 385 l 690 385 l 690 233 l 544 233 m 690 788 l 690 521 l 401 521 l 401 788 l 690 788 m 443 746 l 443 563 l 649 563 l 649 746 l 443 746 z "},"s":{"ha":1093,"x_min":47,"x_max":1046,"o":"m 1046 563 l 1046 0 l 47 0 l 47 275 l 649 275 l 649 343 l 47 343 l 47 919 q 77 991 47 961 q 149 1021 107 1021 l 944 1021 q 1016 991 986 1021 q 1046 919 1046 961 l 1046 622 l 649 622 l 649 746 l 443 746 l 443 563 l 1046 563 m 89 233 l 89 42 l 1004 42 l 1004 521 l 401 521 l 401 788 l 690 788 l 690 664 l 1004 664 l 1004 919 q 986 962 1004 944 q 944 979 968 979 l 149 979 q 119 971 132 979 q 97 949 106 963 q 89 919 89 936 l 89 385 l 690 385 l 690 233 l 89 233 z "},"t":{"ha":988,"x_min":-7,"x_max":993,"o":"m 692 746 l 692 0 l 296 0 l 296 746 l -6 746 l -6 919 q 24 991 -6 961 q 96 1021 54 1021 l 892 1021 q 963 991 933 1021 q 993 919 993 961 l 993 746 l 692 746 m 338 788 l 338 42 l 650 42 l 650 788 l 951 788 l 951 919 q 934 962 951 944 q 892 979 917 979 l 96 979 q 66 971 79 979 q 44 949 53 963 q 36 919 36 936 l 36 788 l 338 788 z "},"u":{"ha":1093,"x_min":47,"x_max":1046,"o":"m 1046 919 l 1046 0 l 47 0 l 47 919 q 77 991 47 961 q 149 1021 107 1021 l 342 1021 q 414 991 385 1021 q 443 919 443 961 l 443 275 l 649 275 l 649 919 q 678 991 649 961 q 751 1021 708 1021 l 944 1021 q 1016 991 986 1021 q 1046 919 1046 961 m 89 919 l 89 42 l 1004 42 l 1004 919 q 987 962 1004 944 q 944 979 969 979 l 751 979 q 708 962 726 979 q 690 919 690 944 l 690 233 l 401 233 l 401 919 q 384 962 401 944 q 342 979 367 979 l 149 979 q 106 962 124 979 q 89 919 89 944 z "},"v":{"ha":1085,"x_min":46,"x_max":1081,"o":"m 1071 907 l 926 0 l 47 0 l 47 919 q 77 991 47 961 q 149 1021 107 1021 l 342 1021 q 414 991 385 1021 q 443 919 443 961 l 443 275 l 533 275 l 635 914 q 678 989 643 958 q 760 1021 714 1019 l 975 1021 q 1050 988 1021 1022 q 1071 907 1079 953 m 89 919 l 89 42 l 890 42 l 1029 914 q 1018 961 1035 940 q 975 979 1001 981 l 760 979 q 706 958 729 978 q 676 907 682 938 l 569 233 l 401 233 l 401 919 q 384 962 401 944 q 342 979 367 979 l 149 979 q 106 962 124 979 q 89 919 89 944 z "},"w":{"ha":1407,"x_min":47,"x_max":1360,"o":"m 1358 919 l 1358 0 l 47 0 l 47 919 q 77 991 47 961 q 149 1021 107 1021 l 444 1021 l 444 275 l 504 275 l 504 919 q 535 991 506 961 q 607 1021 564 1021 l 800 1021 q 872 991 842 1021 q 901 919 901 961 l 901 275 l 963 275 l 963 919 q 992 991 963 961 q 1064 1021 1022 1021 l 1257 1021 q 1328 991 1299 1021 q 1358 919 1358 961 m 89 919 l 89 42 l 1317 42 l 1317 919 q 1312 943 1317 932 q 1299 962 1307 954 q 1281 974 1292 969 q 1257 979 1269 979 l 1064 979 q 1022 962 1039 979 q 1004 919 1004 944 l 1004 233 l 860 233 l 860 919 q 855 943 860 932 q 842 962 850 954 q 822 974 833 969 q 800 979 811 979 l 607 979 q 564 962 582 979 q 546 919 546 944 l 546 233 l 401 233 l 401 979 l 149 979 q 118 971 132 979 q 97 949 104 963 q 89 919 89 936 z "},"x":{"ha":1082,"x_min":42,"x_max":1040,"o":"m 1040 293 l 1040 0 l 497 0 l 497 275 l 643 275 l 643 343 l 438 343 l 438 0 l 42 0 l 42 293 q 72 397 42 349 q 151 469 101 444 q 106 501 126 482 q 72 543 86 521 q 49 592 57 565 q 42 647 42 619 l 42 919 q 72 991 42 961 q 143 1021 101 1021 l 336 1021 q 408 991 379 1021 q 438 919 438 961 l 438 563 l 643 563 l 643 919 q 673 991 643 961 q 746 1021 703 1021 l 939 1021 q 1010 991 981 1021 q 1040 919 1040 961 l 1040 647 q 1010 543 1040 592 q 931 469 981 494 q 1010 397 981 444 q 1040 293 1040 349 m 539 233 l 539 42 l 999 42 l 999 293 q 953 403 999 357 q 842 449 907 449 l 842 490 q 953 536 907 490 q 999 647 999 582 l 999 919 q 981 962 999 944 q 939 979 964 979 l 746 979 q 703 962 721 979 q 685 919 685 944 l 685 521 l 397 521 l 397 919 q 378 962 396 944 q 336 979 361 979 l 143 979 q 119 974 131 979 q 101 962 108 969 q 88 943 93 954 q 83 919 83 932 l 83 647 q 129 536 83 582 q 240 490 175 490 l 240 449 q 129 403 175 449 q 83 293 83 357 l 83 42 l 397 42 l 397 385 l 685 385 l 685 233 l 539 233 z "},"y":{"ha":1051,"x_min":26,"x_max":1025,"o":"m 724 343 l 724 0 l 328 0 l 328 343 l 26 343 l 26 919 q 56 991 26 961 q 128 1021 86 1021 l 321 1021 q 393 991 364 1021 q 422 919 422 961 l 422 563 l 628 563 l 628 919 q 658 991 628 961 q 731 1021 688 1021 l 924 1021 q 995 991 965 1021 q 1025 919 1025 961 l 1025 343 l 724 343 m 369 385 l 369 42 l 682 42 l 682 385 l 983 385 l 983 919 q 965 962 983 944 q 924 979 947 979 l 729 979 q 688 962 706 979 q 669 919 669 944 l 669 521 l 381 521 l 381 919 q 363 962 381 944 q 321 979 346 979 l 128 979 q 85 962 103 979 q 68 919 68 944 l 68 385 l 369 385 z "},"z":{"ha":1092,"x_min":46,"x_max":1046,"o":"m 1046 275 l 1046 0 l 47 0 l 47 563 l 649 563 l 649 746 l 443 746 l 443 622 l 47 622 l 47 919 q 77 991 47 961 q 149 1021 107 1021 l 944 1021 q 1016 991 986 1021 q 1046 919 1046 961 l 1046 343 l 443 343 l 443 275 l 1046 275 m 89 521 l 89 42 l 1004 42 l 1004 233 l 403 233 l 403 385 l 1004 385 l 1004 919 q 987 962 1004 944 q 944 979 969 979 l 149 979 q 106 962 124 979 q 89 919 89 944 l 89 664 l 403 664 l 403 788 l 690 788 l 690 521 l 89 521 z "}," ":{"ha":547,"x_min":0,"x_max":0,"o":""},"­":{"ha":0,"x_min":0,"x_max":0,"o":""},"":{"ha":2138,"x_min":4,"x_max":2132,"o":"m 2124 907 l 1979 0 l 503 0 l 546 275 l 653 275 l 653 344 l 496 344 l 442 0 l 4 0 l 150 914 q 174 967 156 943 q 218 1006 192 992 q 275 1021 244 1019 l 947 1021 q 1019 991 989 1021 q 1049 919 1049 961 l 1049 275 l 1100 275 l 1100 919 q 1130 991 1100 961 q 1201 1021 1160 1021 l 1394 1021 q 1466 991 1436 1021 q 1496 919 1496 961 l 1496 275 l 1586 275 l 1688 914 q 1731 990 1696 960 q 1813 1021 1767 1019 l 2028 1021 q 2103 988 2072 1022 q 2124 907 2132 953 m 582 233 l 551 42 l 1943 42 l 2082 914 q 2071 961 2088 940 q 2028 979 2053 981 l 1813 979 q 1774 969 1792 978 q 1744 943 1757 960 q 1729 907 1732 926 l 1621 233 l 1454 233 l 1454 919 q 1437 962 1454 944 q 1394 979 1419 979 l 1201 979 q 1159 962 1176 979 q 1142 919 1142 944 l 1142 233 l 1007 233 l 1007 919 q 990 962 1007 944 q 947 979 972 979 l 275 979 q 220 958 243 978 q 190 907 197 938 l 53 42 l 406 42 l 461 386 l 694 386 l 694 233 l 582 233 m 694 788 l 694 521 l 482 521 l 525 788 l 694 788 m 560 746 l 531 563 l 653 563 l 653 746 l 560 746 z "},"":{"ha":1540,"x_min":47,"x_max":1493,"o":"m 1493 919 l 1493 0 l 503 0 l 503 275 l 649 275 l 649 343 l 443 343 l 443 0 l 47 0 l 47 919 q 77 991 47 961 q 149 1021 107 1021 l 944 1021 q 1016 991 986 1021 q 1046 919 1046 961 l 1046 647 q 1016 544 1046 592 q 936 469 986 496 q 1016 397 986 444 q 1046 293 1046 349 l 1046 275 l 1096 275 l 1096 919 q 1126 991 1096 961 q 1199 1021 1156 1021 l 1392 1021 q 1463 991 1433 1021 q 1493 919 1493 961 m 544 233 l 544 42 l 1451 42 l 1451 919 q 1433 962 1451 944 q 1392 979 1415 979 l 1199 979 q 1156 962 1174 979 q 1138 919 1138 944 l 1138 233 l 1004 233 l 1004 293 q 958 403 1004 357 q 847 449 913 449 l 847 490 q 926 512 890 490 q 983 569 963 533 q 1004 647 1004 604 l 1004 919 q 986 962 1004 944 q 944 979 968 979 l 149 979 q 106 962 124 979 q 89 919 89 944 l 89 42 l 401 42 l 401 385 l 690 385 l 690 233 l 544 233 m 690 788 l 690 521 l 401 521 l 401 788 l 690 788 m 443 746 l 443 563 l 649 563 l 649 746 l 443 746 z "},"":{"ha":2142,"x_min":47,"x_max":2096,"o":"m 2094 275 l 2094 0 l 503 0 l 503 275 l 649 275 l 649 343 l 443 343 l 443 0 l 47 0 l 47 919 q 77 991 47 961 q 149 1021 107 1021 l 342 1021 q 414 991 385 1021 q 443 919 443 961 l 443 563 l 649 563 l 649 919 q 678 991 649 961 q 751 1021 708 1021 l 944 1021 q 1016 991 986 1021 q 1046 919 1046 961 l 1046 275 l 1096 275 l 1096 919 q 1126 991 1096 961 q 1199 1021 1156 1021 l 1993 1021 q 2065 991 2035 1021 q 2094 919 2094 961 l 2094 622 l 1699 622 l 1699 746 l 1493 746 l 1493 563 l 2094 563 l 2094 343 l 1493 343 l 1493 275 l 2094 275 m 544 233 l 544 42 l 2053 42 l 2053 233 l 1451 233 l 1451 385 l 2053 385 l 2053 521 l 1451 521 l 1451 788 l 1740 788 l 1740 664 l 2053 664 l 2053 919 q 2035 962 2053 944 q 1993 979 2018 979 l 1199 979 q 1156 962 1174 979 q 1138 919 1138 944 l 1138 233 l 1004 233 l 1004 919 q 987 962 1004 944 q 944 979 969 979 l 751 979 q 728 974 739 979 q 708 962 717 969 q 695 943 700 954 q 690 919 690 932 l 690 521 l 401 521 l 401 919 q 384 962 401 944 q 342 979 367 979 l 149 979 q 106 962 124 979 q 89 919 89 944 l 89 42 l 401 42 l 401 385 l 690 385 l 690 233 l 544 233 z "}}}
